<?xml version="1.0" standalone="no"?>
<!DOCTYPE svg PUBLIC "-//W3C//DTD SVG 20010904//EN"
 "http://www.w3.org/TR/2001/REC-SVG-20010904/DTD/svg10.dtd">
<svg version="1.0" xmlns="http://www.w3.org/2000/svg"
 width="500.000000pt" height="500.000000pt" viewBox="0 0 500.000000 500.000000"
 preserveAspectRatio="xMidYMid meet">
<metadata>
Created by potrace 1.14, written by Peter Selinger 2001-2017
</metadata>
<g transform="translate(0.000000,500.000000) scale(0.100000,-0.100000)"
fill="#000000" stroke="none">
<path d="M1345 4086 c-233 -110 -156 -463 101 -466 158 -1 276 142 244 296
-32 155 -201 238 -345 170z"/>
<path d="M2335 3984 c-133 -27 -222 -64 -328 -136 -82 -56 -135 -105 -277
-257 -172 -185 -260 -248 -432 -307 -71 -24 -190 -49 -273 -58 l-50 -5 40 10
c152 39 256 86 352 158 64 47 78 71 43 71 -42 0 -129 43 -191 93 -80 67 -217
161 -278 192 -176 89 -338 83 -441 -17 -100 -99 -90 -245 26 -347 67 -59 197
-127 280 -147 201 -48 416 -134 531 -212 123 -84 204 -202 239 -348 20 -84 14
-275 -10 -344 -9 -25 -14 -34 -11 -20 28 142 28 234 -2 340 -12 46 -46 125
-59 139 -2 2 -23 -17 -46 -44 -23 -26 -87 -82 -142 -125 -223 -172 -262 -249
-193 -381 38 -75 91 -113 180 -129 105 -20 176 5 232 81 6 8 29 37 51 64 94
114 213 320 297 515 52 121 87 234 151 483 71 276 116 374 226 490 71 76 133
121 244 178 l89 47 -52 11 c-50 11 -154 13 -196 5z"/>
<path d="M2350 3189 c-123 -21 -256 -113 -317 -220 -32 -56 -63 -177 -63 -245
0 -77 26 -189 58 -248 35 -65 125 -155 182 -183 189 -92 420 -64 566 69 185
170 192 516 13 697 -107 108 -277 158 -439 130z m186 -243 c90 -42 144 -130
144 -235 0 -101 -74 -208 -160 -231 -162 -44 -300 62 -300 229 0 36 5 83 11
105 16 57 74 114 139 136 72 25 105 25 166 -4z"/>
<path d="M3270 3193 c-14 -2 -54 -14 -90 -25 -85 -28 -169 -108 -189 -181 -17
-60 -10 -170 14 -217 44 -87 102 -122 236 -145 179 -29 202 -35 220 -51 27
-24 24 -66 -7 -95 -23 -21 -34 -24 -109 -24 -69 0 -88 4 -112 21 -15 12 -29
31 -31 43 -3 20 -8 21 -118 21 l-114 0 0 -37 c1 -124 121 -234 290 -264 159
-28 344 39 414 150 59 93 49 240 -22 314 -52 55 -112 76 -278 101 -55 8 -113
21 -128 27 -50 23 -48 92 3 126 68 46 187 24 206 -37 6 -18 16 -20 116 -20
l109 0 0 28 c0 69 -52 158 -118 201 -74 49 -212 79 -292 64z"/>
<path d="M4091 3112 c-19 -42 -113 -247 -208 -455 -96 -208 -172 -384 -169
-392 4 -12 28 -15 116 -15 l110 0 30 60 30 60 183 0 182 0 27 -60 26 -60 116
0 c109 0 116 1 116 20 0 11 -88 210 -196 442 -108 233 -201 435 -207 451 -11
25 -16 27 -67 27 l-55 0 -34 -78z m189 -530 c0 -4 -45 -7 -100 -7 -55 0 -100
2 -100 5 0 6 87 206 96 221 5 9 104 -199 104 -219z"/>
<path d="M2259 2065 c18 -32 31 -69 31 -90 0 -24 5 -35 15 -35 11 0 15 11 15
37 0 24 11 53 31 85 32 49 32 83 0 40 -52 -72 -45 -70 -71 -24 -13 23 -30 42
-38 42 -10 0 -5 -16 17 -55z"/>
<path d="M2740 2030 c0 -53 4 -90 10 -90 6 0 10 20 10 44 0 46 19 72 45 62 11
-4 15 -20 15 -56 0 -33 4 -50 13 -50 9 0 11 16 7 62 l-5 63 -38 0 c-34 0 -37
2 -37 28 0 15 -4 27 -10 27 -6 0 -10 -37 -10 -90z"/>
<path d="M2943 2094 c-23 -35 -9 -55 51 -73 38 -12 46 -19 44 -35 -4 -30 -62
-35 -80 -7 -16 26 -28 27 -28 2 0 -53 119 -62 135 -10 12 37 -4 57 -55 69 -38
9 -50 17 -50 31 0 30 49 37 71 11 21 -27 29 -28 29 -2 0 45 -89 56 -117 14z"/>
<path d="M3729 2093 c-21 -52 -49 -136 -49 -145 0 -19 20 -6 26 17 5 21 12 25
44 25 32 0 39 -4 44 -25 4 -14 14 -25 22 -25 11 0 14 5 9 18 -4 9 -19 50 -33
90 -27 77 -45 90 -63 45z m40 -70 c1 -7 -8 -13 -19 -13 -23 0 -24 8 -9 47 l12
28 7 -25 c5 -14 8 -31 9 -37z"/>
<path d="M3861 2107 c-13 -16 -15 -33 -13 -109 2 -44 6 -58 17 -58 11 0 15 13
15 54 0 34 5 57 13 60 10 5 10 7 0 12 -15 7 -17 34 -3 34 6 0 10 5 10 10 0 14
-26 12 -39 -3z"/>
<path d="M4000 2105 c0 -8 5 -15 10 -15 6 0 10 7 10 15 0 8 -4 15 -10 15 -5 0
-10 -7 -10 -15z"/>
<path d="M4050 2030 c0 -53 4 -90 10 -90 6 0 10 11 10 24 0 38 18 41 38 7 9
-17 25 -31 34 -31 15 0 14 5 -7 36 -30 44 -31 50 -5 66 11 7 20 16 20 20 0 16
-25 7 -52 -19 l-28 -27 0 52 c0 29 -4 52 -10 52 -6 0 -10 -37 -10 -90z"/>
<path d="M2669 2083 c-3 -31 2 -107 7 -125 6 -19 44 -25 44 -8 0 6 -4 10 -10
10 -15 0 -12 87 3 94 10 5 10 7 0 12 -7 3 -13 12 -13 20 0 20 -30 17 -31 -3z"/>
<path d="M2409 2054 c-7 -9 -13 -31 -13 -49 0 -18 6 -40 13 -49 16 -19 72 -21
89 -4 17 17 15 84 -4 102 -20 21 -68 20 -85 0z m74 -25 c5 -9 7 -28 3 -43 -5
-22 -11 -27 -34 -24 -21 2 -28 9 -30 31 -2 16 -1 35 2 44 7 18 46 13 59 -8z"/>
<path d="M2542 2008 l3 -63 48 -1 47 -2 0 64 c0 36 -4 64 -10 64 -5 0 -10 -18
-10 -39 0 -55 -8 -71 -36 -71 -22 0 -24 4 -24 55 0 32 -4 55 -10 55 -7 0 -10
-24 -8 -62z"/>
<path d="M3096 2061 c-2 -3 -4 -43 -4 -88 0 -64 3 -83 14 -83 8 0 14 10 14 25
0 22 4 25 33 25 26 0 36 6 45 25 28 62 2 106 -61 103 -21 -1 -39 -4 -41 -7z
m79 -56 c0 -36 -2 -40 -25 -40 -20 0 -26 6 -28 28 -5 42 5 59 30 55 20 -3 23
-9 23 -43z"/>
<path d="M3242 2058 c-16 -16 -15 -28 3 -28 8 0 15 5 15 10 0 6 11 10 25 10
16 0 25 -6 25 -15 0 -8 -9 -15 -21 -15 -34 0 -59 -19 -59 -45 0 -29 27 -46 55
-35 11 5 31 6 45 2 21 -4 23 -3 13 9 -6 8 -13 37 -15 64 -3 49 -4 50 -38 53
-19 2 -41 -3 -48 -10z m66 -75 c-4 -23 -58 -31 -58 -9 0 13 16 22 48 25 8 0
12 -7 10 -16z"/>
<path d="M3377 2052 c-20 -22 -22 -83 -5 -100 20 -20 76 -15 88 9 15 26 3 40
-14 16 -19 -26 -54 -22 -62 7 -12 47 43 94 60 50 3 -8 10 -12 16 -9 7 4 7 13
0 26 -14 25 -61 25 -83 1z"/>
<path d="M3502 2057 c-40 -47 -15 -117 41 -117 31 0 57 14 57 32 0 4 -7 8 -15
8 -8 0 -15 -5 -15 -11 0 -6 -12 -9 -27 -7 -46 5 -35 33 12 33 30 1 41 5 43 19
8 41 -69 76 -96 43z m65 -24 c5 -15 -36 -28 -49 -15 -6 6 -7 15 -3 22 9 14 47
9 52 -7z"/>
<path d="M3920 2003 c0 -35 4 -63 10 -63 6 0 10 18 10 40 0 27 7 47 20 60 26
26 25 29 -10 28 l-30 -1 0 -64z"/>
<path d="M4000 2005 c0 -37 4 -65 10 -65 6 0 10 28 10 65 0 37 -4 65 -10 65
-6 0 -10 -28 -10 -65z"/>
<path d="M4182 2058 c-16 -16 -15 -28 3 -28 8 0 15 5 15 10 0 6 11 10 25 10
39 0 30 -25 -12 -36 -33 -8 -38 -13 -38 -39 0 -30 1 -30 58 -32 40 -1 55 1 51
9 -4 6 -8 29 -10 51 -2 22 -5 46 -8 54 -7 16 -68 17 -84 1z m66 -75 c-4 -23
-58 -31 -58 -9 0 15 14 24 43 25 12 1 17 -5 15 -16z"/>
</g>
</svg>
